<svg xmlns="http://www.w3.org/2000/svg" viewBox="0 0 64 64" role="img" aria-label="SignalCraft Labs">
  <rect width="64" height="64" rx="12" fill="#078b7b"/>
  <path d="M42.6 21.2c-2.8-2.2-6.1-3.4-10-3.4-5.9 0-10 3.2-10 7.8 0 4.1 2.8 6.2 8.7 7.5l3.7.8c3.1.7 4.4 1.5 4.4 3.3 0 2.1-2.2 3.5-5.7 3.5-3.8 0-7.2-1.3-10.5-4.1l-3.2 5.3c3.5 3 8.3 4.7 13.5 4.7 6.7 0 11.6-3.3 11.6-8.2 0-4.5-3-6.8-9.4-8.2l-3.9-.8c-2.5-.5-3.6-1.3-3.6-2.9 0-1.9 1.9-3.1 4.8-3.1 2.9 0 5.4.9 7.9 2.9l1.7-5.1z" fill="#fff"/>
</svg>
